<?xml version="1.0" encoding="UTF-8"?>
<svg id="Camada_1" xmlns="http://www.w3.org/2000/svg" version="1.1" viewBox="0 0 2000 2000">
  <defs>
    <style>
      .st0 {
        fill: #183a64;
      }
    </style>
  </defs>
  <path class="st0" d="M1192.62,1248.84h-356.99c-.37-1.04-1.02-1.19-2.42-1.65-13.98-4.56-24.2-17.13-24.22-32.49l-.24-199.65c-18.43,27.64-30.77,56.81-39.93,88.66-.6-7.97,1.05-14.94,2.13-22.68,5.2-37.33,18.64-72,39.43-103.46,53.13-80.4,145.95-136.14,239.21-156.69,43.47-9.58,99.12-12.23,140.72,2.21,10.02,3.48,19.17,8.05,27.01,14.96,17.26,15.2,17.19,36.47,7.11,56.69-16.34,32.76-48.68,62.87-78.56,84.49-44.39,32.12-93.36,56.69-145.71,73.08-24.19,7.57-48.09,12.81-74.34,13.98,20.58-35.01,41.56-67.37,64.86-99.3,16.41-22.5,43.11-57.41,64.88-71.12,7.88-4.96,16.49-5.38,25.68-1.42-3.44-10.45-10.27-18.11-18.94-23.2-11.17-6.56-23.88-5.32-34.54,1.8-13.16,8.79-24.03,19.43-34.45,31.54-48.75,56.66-95.18,144.06-123.07,213.72-9.55,23.85-35.43,95.13-15.85,106.35,3.83,2.19,7.85,2.32,12.39.66-9.01-2.89-7.36-15.9-4.12-27.52,10.49-37.62,34.66-80.97,54.19-116.23,54.98,5.89,112.51-7.62,164.46-26.02,39.32-14.33,76.28-32.24,111.65-55.89l-.33,249.17Z"/>
  <path class="st0" d="M1133.41,736.91c37.35,6.32,59.95,32.26,59.5,71.11-45.41-9.89-91.53-7.97-137.15-2.92-87.91,12.26-177.37,47.58-246.83,104.76l-.3-173.02,324.78.07Z"/>
</svg>
